<?xml version="1.0" standalone="no"?>
<!DOCTYPE svg PUBLIC "-//W3C//DTD SVG 20010904//EN"
 "http://www.w3.org/TR/2001/REC-SVG-20010904/DTD/svg10.dtd">
<svg version="1.0" xmlns="http://www.w3.org/2000/svg"
 width="545.000000pt" height="560.000000pt" viewBox="0 0 545.000000 560.000000"
 preserveAspectRatio="xMidYMid meet">

<g transform="translate(0.000000,560.000000) scale(0.100000,-0.100000)"
fill="#000000" stroke="none">
<path d="M1550 4802 c0 -92 -4 -173 -9 -180 -6 -10 -48 -2 -196 38 -104 27
-197 50 -207 50 -17 0 -18 -16 -18 -270 l0 -270 -235 0 -235 0 0 -165 0 -165
-215 0 -215 0 0 -1378 0 -1379 143 -6 c78 -4 261 -7 407 -7 457 0 1040 -20
1321 -46 l66 -6 5 -137 c4 -115 8 -144 27 -183 27 -57 106 -132 169 -161 65
-30 197 -30 264 0 58 26 134 95 159 145 23 45 39 145 39 251 0 53 4 79 13 82
20 7 391 33 563 40 89 3 430 10 759 15 328 4 598 10 599 12 2 1 6 623 9 1381
l5 1377 -219 0 -219 0 0 159 0 158 -92 7 c-50 3 -153 6 -228 6 l-137 0 -6 251
c-6 299 -3 290 -99 270 -35 -7 -121 -28 -191 -47 -71 -20 -135 -33 -143 -30
-11 4 -14 27 -14 93 0 48 -3 125 -7 171 -6 78 -7 82 -27 76 -41 -12 -315 -114
-556 -206 -349 -134 -347 -134 -412 -112 -60 19 -249 92 -518 199 -102 41
-222 88 -267 104 l-83 30 0 -167z m1698 -320 c2 -130 -1 -256 -5 -280 l-8 -43
-185 -70 c-102 -38 -271 -104 -377 -146 l-191 -76 -229 93 c-125 51 -297 120
-380 153 l-153 60 0 279 c0 233 2 278 14 278 8 0 137 -48 288 -106 150 -58
314 -121 363 -139 l91 -33 99 37 c55 21 150 57 210 81 335 130 441 167 450
158 6 -5 11 -105 13 -246z m-1815 -3 c54 -16 100 -35 103 -42 2 -7 8 -91 12
-187 l7 -174 325 -131 c179 -73 357 -145 395 -161 l70 -30 3 -157 3 -157 124
0 c68 0 126 4 129 9 3 4 8 76 12 159 l7 152 381 150 c210 83 388 154 396 159
12 7 16 43 20 192 l5 183 100 32 c55 18 117 35 138 39 l37 7 0 -1065 0 -1064
-55 -7 c-106 -12 -370 -104 -521 -182 -191 -98 -378 -236 -535 -396 -53 -54
-101 -98 -106 -98 -6 0 -42 36 -82 80 -185 204 -459 388 -739 494 -48 18 -156
51 -239 72 l-153 39 -2 560 c-4 689 1 1419 8 1503 7 74 -9 72 157 21z m-313
-1339 l0 -880 23 -4 c12 -3 64 -12 115 -21 113 -19 350 -91 470 -143 239 -103
510 -318 681 -539 35 -46 67 -83 71 -83 4 0 62 61 129 135 204 227 366 352
606 470 147 73 330 136 461 160 49 9 113 21 142 26 l52 10 0 875 0 874 150 0
150 0 0 -1000 0 -1000 -68 0 c-133 0 -402 -62 -652 -151 -296 -106 -638 -320
-871 -546 l-85 -83 -72 79 c-141 155 -366 315 -637 452 -252 127 -470 191
-864 253 -51 8 -96 18 -100 21 -3 4 -8 446 -9 982 -3 810 -2 977 10 984 7 5
77 9 156 9 l142 0 0 -880z m-470 -350 l0 -900 23 0 c131 0 398 -40 572 -85
314 -82 519 -173 777 -344 144 -96 296 -217 285 -227 -2 -2 -39 16 -83 41
-162 93 -464 201 -691 249 -286 60 -476 82 -786 91 -106 3 -234 8 -284 11
l-93 6 0 1029 0 1029 140 0 140 0 0 -900z m3961 -130 c-2 -564 -5 -1027 -7
-1028 -1 -2 -119 -8 -261 -13 -326 -11 -480 -24 -663 -55 -335 -58 -594 -140
-861 -275 -67 -33 -123 -59 -124 -57 -8 8 135 120 261 204 302 201 625 338
944 403 93 19 348 51 408 51 l22 0 0 893 c0 492 3 897 7 901 4 3 68 5 142 4
l136 -3 -4 -1025z m-3626 -1210 c265 -22 542 -75 797 -154 137 -43 264 -94
255 -102 -2 -2 -60 0 -128 6 -155 12 -654 28 -1156 37 l-383 6 0 115 0 115
243 -6 c133 -4 301 -11 372 -17z m3631 -41 c-3 -34 -6 -88 -6 -119 l0 -57
-547 -7 c-302 -3 -667 -13 -813 -20 -146 -8 -267 -13 -268 -11 -15 15 284 114
513 170 305 75 537 100 939 104 l189 1 -7 -61z m-2028 -406 l82 -6 0 -81 c-1
-121 -11 -154 -65 -203 -53 -49 -98 -65 -150 -53 -47 11 -109 54 -124 86 -6
14 -11 76 -11 144 l0 120 93 0 c50 0 129 -3 175 -7z"/>
<path d="M1550 3575 l0 -125 125 0 125 0 0 125 0 125 -125 0 -125 0 0 -125z"/>
<path d="M3170 3575 l0 -125 115 0 115 0 0 125 0 125 -115 0 -115 0 0 -125z"/>
<path d="M2080 3315 l0 -125 135 0 135 0 0 -260 0 -260 132 0 131 0 -6 98 c-4
53 -7 170 -7 260 l0 162 -125 0 -125 0 0 125 0 125 -135 0 -135 0 0 -125z"/>
<path d="M2620 3315 l0 -125 125 0 125 0 0 125 0 125 -125 0 -125 0 0 -125z"/>
<path d="M3170 3061 c0 -60 3 -116 6 -125 7 -19 44 -20 149 -5 l75 11 0 114 0
114 -115 0 -115 0 0 -109z"/>
<path d="M1550 2795 l0 -125 125 0 125 0 0 125 0 125 -125 0 -125 0 0 -125z"/>
<path d="M2880 2795 l0 -125 125 0 125 0 0 125 0 125 -125 0 -125 0 0 -125z"/>
<path d="M2100 2525 l0 -125 119 0 118 0 6 68 c4 37 7 93 7 125 l0 57 -125 0
-125 0 0 -125z"/>
<path d="M2620 2525 l0 -125 125 0 125 0 0 125 0 125 -125 0 -125 0 0 -125z"/>
<path d="M2350 2265 l0 -125 125 0 125 0 0 125 0 125 -125 0 -125 0 0 -125z"/>
</g>
</svg>
